<svg xmlns="http://www.w3.org/2000/svg" xmlns:xlink="http://www.w3.org/1999/xlink" xmlns:inkscape="http://www.inkscape.org/namespaces/inkscape" version="1.1" width="404.27815" height="274.99626" viewBox="0 0 404.27815 274.99626">
<defs>
<g id="font_0_48">
<path transform="matrix(.001,0,0,.001,0,0)" d="M30 298C30 356 33 408 39 454 45 500 58 542 78 578 98 614 123 642 153 660 183 678 217 688 256 688 299 688 337 676 370 654 403 631 427 596 442 550 456 503 464 440 464 360 464 230 444 134 404 73 364 11 308-19 238-19 202-19 171-11 144 3 117 18 95 40 77 69 59 98 47 132 40 172 33 211 30 253 30 298ZM114 327C114 265 118 208 128 158 137 107 152 70 174 48 196 26 222 15 252 15 280 15 304 24 324 44 344 64 358 98 367 146 375 194 380 254 380 325 380 436 369 518 348 572 327 625 292 652 244 652 201 652 169 631 147 590 125 548 114 461 114 327Z"/>
</g>
<g id="font_0_49">
<path transform="matrix(.001,0,0,.001,0,0)" d="M75 552 66 555 61 595 66 600C98 609 139 624 189 645 239 665 274 681 296 693L309 688C303 545 301 459 301 431V250C301 205 301 163 302 124 303 84 305 61 307 54 309 47 312 42 317 38 321 34 328 32 337 31 345 29 371 28 413 26L416 22V0L413-3C341-1 291 0 262 0 240 0 185-1 99-3L96 0V22L100 26C148 29 176 31 183 33 190 35 195 38 199 42 203 46 206 53 208 65 210 77 212 110 214 166 215 222 216 250 216 252V445C216 539 215 590 215 598 215 606 212 611 207 611 205 611 203 610 201 610 199 609 192 606 180 601L132 580C112 570 93 561 75 552Z"/>
</g>
<g id="font_0_50">
<path transform="matrix(.001,0,0,.001,0,0)" d="M22-4 17 0V22L180 196C247 267 291 322 311 361 331 400 341 437 341 471 341 510 329 543 305 569 281 595 248 609 207 609 180 609 157 605 138 597 118 589 105 580 99 570 92 560 82 531 70 485L65 481H45L41 485C48 529 53 572 56 616 86 646 115 665 142 673 168 681 196 686 225 686 259 686 292 679 324 666 356 652 381 631 400 602 419 573 429 539 429 501 429 472 423 443 412 415 401 386 385 358 363 332 341 305 312 273 274 235L122 80H315C374 80 423 82 463 86L466 83C464 71 463 57 463 39 463 23 464 10 466 0L463-4C439-2 403-1 355-1 306 0 274 0 259 0 227 0 184 0 131 0 77 0 41-2 22-4Z"/>
</g>
<g id="font_0_51">
<path transform="matrix(.001,0,0,.001,0,0)" d="M51 11C45 49 34 96 18 150L21 157 39 164 45 161C57 131 69 106 82 86 95 66 114 51 138 41 162 31 189 26 217 26 253 26 281 33 302 48 323 63 339 83 351 109 362 135 368 164 368 196 368 239 356 273 334 298 311 322 280 335 240 335 226 335 214 333 204 331 193 329 176 323 154 314L148 319 159 372C185 370 203 370 212 370 250 370 280 383 302 410 324 437 336 469 336 506 336 538 324 565 301 587 277 609 249 620 215 620 192 620 171 615 151 606 131 596 114 585 102 573 96 561 87 539 75 507L70 503H48L44 507 74 621C114 666 169 689 239 689 292 689 335 675 368 647 400 619 417 583 417 541 417 508 407 478 388 451 368 424 342 399 308 375 364 367 404 350 427 324 449 297 461 265 461 227 461 164 432 108 376 58 320 8 254-16 180-16 158-16 137-14 118-10 98-6 76 0 51 11Z"/>
</g>
<g id="font_0_116">
<path transform="matrix(.001,0,0,.001,0,0)" d="M22 383V396L26 401C56 412 81 423 100 433 100 517 99 567 97 581 130 593 158 605 180 619L191 609C188 588 184 528 180 430 196 430 213 430 232 430 270 430 298 431 315 433L318 429 309 388 305 384C288 384 270 384 250 384 232 384 208 384 180 384L177 185C177 139 178 109 180 95 182 81 187 70 197 62 207 54 221 50 240 50 262 50 282 55 301 67L313 49C305 43 286 27 256 0 239-6 222-10 205-10 131-10 95 25 95 95 95 121 95 143 97 162 97 167 97 173 97 179V381H77C62 381 45 380 27 379L22 383Z"/>
</g>
<g id="font_0_105">
<path transform="matrix(.001,0,0,.001,0,0)" d="M141 684C156 684 169 678 180 667 190 656 196 643 196 628 196 613 190 600 180 590 169 579 156 574 141 574 125 574 112 579 101 589 90 599 85 612 85 628 85 643 90 656 101 667 112 678 125 684 141 684ZM182 465 191 459C187 416 186 362 186 296V186C186 178 186 155 188 117 189 78 190 55 192 49 193 42 195 37 198 34 201 31 205 29 209 29 213 28 231 27 262 25L267 21V0L263-3C222-1 183 0 145 0 107 0 68-1 28-3L23 0V21L28 25C59 27 77 28 81 29 85 30 88 32 92 35 95 38 97 43 98 49 99 55 100 76 102 112 103 148 104 175 104 193V290C104 302 103 320 102 342 101 364 100 378 99 384 98 389 95 393 91 395 87 397 78 399 66 399L25 400 21 404V425L25 429C87 436 139 448 182 465ZM144-28V-28Z"/>
</g>
<g id="font_0_109">
<path transform="matrix(.001,0,0,.001,0,0)" d="M180 465 189 459C187 437 185 412 185 382L231 424C244 436 253 443 257 447 261 451 271 455 287 459 303 463 319 466 336 466 368 466 397 458 421 442 445 426 464 403 476 375 520 417 545 440 553 445 560 449 572 454 588 459 604 463 620 466 636 466 661 466 684 460 706 449 728 438 745 424 758 406 770 388 778 368 780 347 782 326 783 298 783 262V210C783 204 784 164 786 89 786 57 790 39 796 33 802 27 822 25 856 25L860 21V0L856-3C814-1 786 0 772 0 764 0 740-1 702-3L695 1C699 43 702 99 702 167V226C702 277 699 313 694 334 689 354 678 371 660 385 642 398 620 405 596 405 578 405 562 401 547 394 531 387 517 377 505 363 493 349 486 336 485 324 483 312 483 291 483 259V198C483 183 483 156 485 117 486 77 487 54 489 48 491 42 493 37 496 34 499 31 503 29 507 29 511 28 528 27 560 25L564 21V0L560-3C519-1 480 0 442 0 407 0 368-1 325-3L321 0V21L325 25C357 27 375 28 379 29 383 30 386 32 389 35 392 38 394 43 395 49 396 55 397 76 399 112 401 148 402 175 402 193V249C402 285 399 314 394 334 389 354 378 370 362 384 345 398 324 405 299 405 279 405 262 401 246 393 230 385 216 376 206 365 196 353 189 343 187 333 185 323 184 302 184 270V198C184 183 184 156 186 117 187 77 188 54 190 48 191 42 193 37 196 34 199 31 203 29 207 29 211 28 228 27 260 25L264 21V0L260-3C219-1 180 0 142 0 104 0 65-1 25-3L21 0V21L25 25C57 27 75 28 79 29 83 30 86 32 89 35 92 38 94 43 96 49 97 55 98 76 100 112 101 148 102 175 102 193V290C102 302 101 320 100 342 98 364 97 378 97 384 96 389 93 393 89 395 85 397 76 399 64 399L23 400 19 404V425L22 429C84 436 137 448 180 465Z"/>
</g>
<g id="font_0_101">
<path transform="matrix(.001,0,0,.001,0,0)" d="M432 72 416 37C382 15 351 1 325-5 299-11 275-15 254-15 215-15 178-7 143 7 108 22 80 48 58 85 36 121 25 165 25 217 25 251 29 281 37 309 45 337 54 357 64 371 73 384 89 399 111 415 133 431 157 444 182 454 206 464 233 469 262 469 300 469 335 459 365 441 395 423 416 399 428 371 440 342 446 311 446 279 446 269 445 259 444 250L439 245C417 239 387 236 349 234 311 232 287 232 275 232H119C119 164 136 115 169 83 202 51 243 36 292 36 314 36 336 39 357 47 378 55 400 66 424 80L432 72ZM119 271C124 270 146 269 186 268 225 266 254 266 273 266 318 266 346 267 356 269 356 276 356 282 356 287 356 337 345 374 325 399 305 423 277 436 242 436 203 436 173 422 151 394 129 366 119 325 119 271ZM255 496V496ZM249-28V-28Z"/>
</g>
<g id="font_0_115">
<path transform="matrix(.001,0,0,.001,0,0)" d="M49 144H70L75 139C75 111 77 88 80 69 90 53 107 41 132 31 156 21 181 17 205 17 239 17 267 26 288 45 308 63 319 85 319 111 319 125 315 137 307 147 299 157 288 166 273 173 258 179 231 187 192 197 158 204 135 210 122 215 108 219 95 227 83 237 71 247 61 260 55 275 48 290 45 307 45 326 45 369 62 404 97 430 131 456 175 470 227 470 249 470 272 467 298 461 324 455 343 449 357 443L361 437C358 423 356 389 356 334L352 330H333L328 334C326 354 324 368 322 376 320 384 314 392 305 402 295 411 282 419 265 425 247 431 229 435 210 435 190 435 174 432 160 426 146 420 135 411 127 399 119 387 115 372 115 356 115 343 117 332 122 322 127 312 135 305 146 299 156 293 167 288 179 286L232 272C277 261 309 251 329 243 349 235 364 222 375 206 386 190 392 170 392 147 392 102 373 64 336 32 298 0 251-16 193-16 172-16 146-13 116-9 86-4 60 0 39 5L36 11 41 44C42 54 43 64 43 74 43 84 44 106 45 139L49 144Z"/>
</g>
<g id="font_0_112">
<path transform="matrix(.001,0,0,.001,0,0)" d="M181 471 190 465C186 428 185 395 185 367 229 407 259 433 277 446 294 459 324 466 367 466 393 466 418 462 440 455 462 447 482 435 500 419 518 402 533 381 544 356 555 330 561 301 561 269 561 245 557 221 549 197 541 173 531 150 519 130 507 110 497 96 490 90 482 83 467 73 445 60 425 47 404 34 384 20 370 9 360 2 355 0 349-2 340-4 327-7 314-10 300-12 286-12 252-12 218-3 185 13V-90C185-97 185-120 186-159 187-198 188-221 190-227 192-233 194-238 197-241 200-244 204-246 208-247 212-248 229-249 261-251L265-255V-276L261-280C220-277 181-276 144-276 106-276 67-277 27-280L22-276V-255L27-251C58-249 76-248 80-247 84-246 87-244 91-241 94-237 96-232 97-226 98-219 99-197 101-160 103-123 104-96 104-78V295C104 312 103 332 101 354 99 376 98 389 97 393 96 396 94 399 90 401 86 403 78 405 65 405L24 406 20 410V431L24 435C86 442 138 454 181 471ZM185 97C199 81 218 68 240 57 262 45 286 40 313 40 345 40 373 48 397 64 421 80 440 103 454 134 467 164 474 198 474 236 474 266 468 295 456 321 444 347 425 367 400 382 375 397 349 405 321 405 303 405 287 402 271 396 255 390 239 381 225 369 211 357 201 346 195 336 189 325 185 316 185 309 185 302 185 294 185 286V97Z"/>
</g>
<g id="font_0_46">
<path transform="matrix(.001,0,0,.001,0,0)" d="M125 108C140 108 153 102 165 91 177 80 183 66 183 49 183 33 177 19 166 8 154-2 141-8 125-8 109-8 95-2 83 8 71 19 66 33 66 49 66 65 71 79 83 91 95 102 109 108 125 108Z"/>
</g>
<g id="font_0_55">
<path transform="matrix(.001,0,0,.001,0,0)" d="M66-3 56 6C67 24 91 62 128 120L218 262 302 399 375 525C390 552 402 574 412 592L407 597H256C218 597 184 596 154 595 124 593 107 591 102 589 96 586 93 583 91 580 89 576 86 564 84 543L75 474 71 470H50L46 474 48 608C48 623 47 647 46 679L56 684C74 682 110 679 165 677 219 675 256 674 275 674 341 674 413 676 491 681L495 677V651L425 527C382 451 333 360 279 256 224 152 184 66 159 0L154-3C135-1 121 0 112 0 97 0 82-1 66-3Z"/>
</g>
<g id="font_0_53">
<path transform="matrix(.001,0,0,.001,0,0)" d="M64 7C56 32 40 74 16 133L17 139 34 149 40 147C66 98 83 70 90 64 96 57 111 49 135 40 159 31 184 27 211 27 243 27 272 34 298 48 323 62 342 84 355 112 367 140 374 171 374 207 374 241 367 271 355 297 343 322 324 341 299 354 274 367 247 374 218 374 200 374 183 371 168 366 153 361 141 355 131 347 121 339 110 328 96 314L76 320 82 425C82 445 83 465 83 485V572C83 598 82 622 81 646 80 660 80 670 80 674L86 679C136 675 192 673 256 673 304 673 363 675 431 679L433 674C430 658 429 643 429 630 429 623 429 612 431 596L426 593C388 595 338 597 276 597 191 597 142 596 128 596 123 557 120 489 118 393 144 412 168 425 190 432 212 439 235 443 260 443 295 443 329 434 362 418 394 402 419 378 435 347 451 316 459 283 459 248 459 181 431 120 377 65 323 10 253-17 168-17 145-17 126-15 112-11 97-7 81-1 64 7Z"/>
</g>
<g id="font_0_72">
<path transform="matrix(.001,0,0,.001,0,0)" d="M29 690C111 687 158 686 168 686 179 686 226 687 309 690L313 687V662L309 659C286 658 268 657 256 656 244 654 235 652 230 648 224 644 221 636 219 623 217 610 216 592 216 568L215 456V388C286 386 354 385 418 385 505 385 571 386 617 388V456L616 551C616 588 615 612 613 623 611 633 609 640 606 644 603 648 597 651 589 653 580 655 558 657 523 659L520 662V687L523 690C606 687 653 686 664 686 674 686 721 687 804 690L808 687V662L804 659C781 658 763 657 751 656 739 654 730 652 724 648 718 644 715 636 713 623 711 610 711 592 711 568L710 456V230L711 135C711 98 711 74 713 63 715 52 717 45 721 42 724 38 730 35 738 33 746 30 768 28 804 27L808 24V0L804-3C720-1 674 0 664 0 653 0 606-1 523-3L520 0V24L523 27C553 28 574 30 584 32 594 34 601 36 604 39 607 42 610 49 612 59 614 69 616 92 616 127L617 230V341C521 343 453 344 415 344 375 344 308 343 215 341V230L216 135C216 98 216 74 218 63 220 52 222 45 225 42 228 38 234 35 243 33 252 30 274 28 309 27L313 24V0L309-3C225-1 178 0 168 0 158 0 111-1 29-3L25 0V24L29 27C59 28 79 30 89 32 99 34 105 36 109 39 113 42 116 49 118 59 120 69 121 92 122 127V230 456L121 551C121 588 120 612 118 623 116 633 114 640 111 644 108 648 102 651 94 653 85 655 63 657 29 659L25 662V687L29 690Z"/>
</g>
<g id="font_0_111">
<path transform="matrix(.001,0,0,.001,0,0)" d="M33 224C33 262 41 300 57 336 73 372 100 403 140 429 180 455 227 468 281 468 349 468 405 446 448 403 491 360 513 305 513 237 513 162 488 101 439 53 389 5 330-18 260-18 214-18 174-6 138 18 102 42 75 72 58 108 41 143 33 182 33 224ZM125 257C125 211 131 171 143 135 155 99 173 70 199 48 224 26 253 16 286 16 324 16 355 31 380 61 405 91 418 137 418 199 418 268 404 325 377 369 350 413 311 436 260 436 218 436 185 420 161 390 137 359 125 315 125 257ZM273 496V496ZM266-28V-28Z"/>
</g>
<g id="font_0_114">
<path transform="matrix(.001,0,0,.001,0,0)" d="M188 465 197 459C195 440 193 406 192 358L229 405C241 420 251 432 261 440 270 448 281 455 293 459 305 463 318 466 332 466 346 466 359 463 372 458L375 451C370 407 367 369 367 336H345C331 366 310 381 282 381 261 381 243 374 229 362 214 349 204 333 199 314 193 294 191 270 191 240V186C191 176 191 152 193 114 194 76 195 54 197 48 199 42 201 38 204 35 207 32 211 30 216 29 221 28 244 27 286 25L291 21V0L286-3C242-1 197 0 150 0 112 0 73-1 33-3L29 0V21L33 25C65 27 83 28 87 29 91 30 94 32 97 35 100 38 102 43 103 49 104 55 105 76 107 112 109 148 110 175 110 193V290C110 302 109 320 108 342 106 364 105 378 105 384 104 389 101 393 97 395 93 397 84 399 72 399L31 400 26 404V425L30 429C92 436 145 448 188 465Z"/>
</g>
<g id="font_0_32">
</g>
<g id="font_0_104">
<path transform="matrix(.001,0,0,.001,0,0)" d="M166 723 175 717C171 679 170 604 170 492V372C197 394 222 416 246 438 252 444 259 449 265 452 271 455 281 458 295 461 309 464 323 466 338 466 362 466 386 461 410 451 433 441 451 429 463 415 475 401 483 385 488 366 492 347 495 324 495 296V210C495 204 495 164 497 89 498 57 502 39 508 33 514 27 534 25 568 25L572 21V0L568-3C526-1 498 0 484 0 476 0 453-1 413-3L407 1C411 43 413 99 413 167V231C413 269 412 297 410 314 408 330 403 346 394 360 384 374 372 384 357 392 342 400 324 404 303 404 281 404 262 401 247 395 232 389 217 378 202 364 186 350 177 338 174 328 171 318 170 300 170 273V186C170 178 170 155 172 117 173 78 174 55 176 49 177 42 179 37 182 34 185 31 189 29 193 29 197 28 215 27 246 25L250 21V0L247-3C206-1 167 0 129 0 91 0 52-1 12-3L7 0V21L12 25C43 27 61 28 65 29 69 30 72 32 76 35 79 38 81 43 82 49 83 55 84 76 86 112 87 148 88 175 88 193V446L86 550C85 586 84 611 83 625 82 639 81 647 79 650 77 652 73 654 68 656 63 657 43 658 9 658L5 662V683L9 687C71 694 123 706 166 723Z"/>
</g>
<g id="font_0_103">
<path transform="matrix(.001,0,0,.001,0,0)" d="M539 432 542 423C528 402 520 389 518 383H427C435 365 440 346 440 327 440 303 434 281 424 259 414 237 399 219 380 204 361 188 340 176 316 167 292 157 264 153 234 153H212C192 137 180 126 175 119 169 111 167 104 167 96 167 82 173 72 186 66 199 60 226 57 268 57L377 59C411 59 438 54 456 46 474 38 489 23 501 3 513-17 519-39 519-63 519-99 507-134 484-170 460-206 427-233 383-251 339-269 292-279 242-279 214-279 187-276 162-270 137-264 115-254 97-242 78-229 63-213 52-193 40-173 35-152 35-130 35-118 36-105 40-92 43-78 50-64 61-49L149 0C120 8 102 16 95 25 87 33 84 44 84 56 84 68 88 83 97 100L175 157C129 169 98 187 82 211 66 235 58 261 58 290 58 316 63 341 75 365 86 389 103 408 126 422 149 436 175 448 203 456 231 464 257 469 281 469 321 469 360 456 397 430 456 430 503 430 539 432ZM142 318C142 298 145 277 153 254 161 231 173 214 191 202 208 190 228 185 250 185 278 185 303 194 324 213 345 232 356 262 356 302 356 336 346 366 327 393 308 420 281 434 246 434 216 434 192 424 172 404 152 384 142 356 142 318ZM285-8C232-8 202-8 194-10 186-11 174-16 160-26 145-36 133-49 124-66 114-83 110-102 110-123 110-159 123-189 151-213 178-236 215-248 261-248 295-248 326-240 355-226 384-212 405-192 419-168 433-144 440-121 440-99 440-77 434-58 423-42 411-26 396-17 378-13 360-9 329-8 285-8Z"/>
</g>
<g id="font_0_40">
<path transform="matrix(.001,0,0,.001,0,0)" d="M272-230C204-172 151-103 114-23 77 57 59 144 59 236 59 311 69 378 90 436 111 494 140 547 177 596 214 645 247 680 276 701L282 700 297 681V676C195 566 145 423 145 247 145 149 156 66 178-2 200-71 240-139 297-207L296-213 278-229 272-230Z"/>
</g>
<g id="font_0_41">
<path transform="matrix(.001,0,0,.001,0,0)" d="M61-230 55-229 36-213V-207C92-139 132-71 154-2 176 66 188 149 188 247 188 423 137 566 36 676V681L51 700 57 701C107 664 155 605 203 524 250 443 274 347 274 236 274 146 256 61 220-19 184-99 131-170 61-230Z"/>
</g>
<clipPath id="clip_1">
<path transform="matrix(1,0,0,-1,0,274.99626)" d="M62.278127 50.35625H397.07814V267.79627H62.278127Z"/>
</clipPath>
<clipPath id="clip_2">
<path transform="matrix(1,0,0,-1,0,274.99626)" d="M62.278127 50.35625H397.07814V267.79627H62.278127Z"/>
</clipPath>
<clipPath id="clip_3">
<path transform="matrix(1,0,0,-1,0,274.99626)" d="M62.278127 50.35625H397.07814V267.79627H62.278127Z"/>
</clipPath>
<clipPath id="clip_4">
<path transform="matrix(1,0,0,-1,0,274.99626)" d="M62.278127 50.35625H397.07814V267.79627H62.278127Z"/>
</clipPath>
<clipPath id="clip_5">
<path transform="matrix(1,0,0,-1,0,274.99626)" d="M62.278127 50.35625H397.07814V267.79627H62.278127Z"/>
</clipPath>
<g id="font_0_108">
<path transform="matrix(.001,0,0,.001,0,0)" d="M183 723 192 717C188 679 187 604 187 492V186C187 178 187 155 188 117 189 78 190 55 192 49 194 42 196 37 199 34 202 31 206 29 210 29 214 28 231 27 263 25L267 21V0L263-3C222-1 183 0 145 0 107 0 68-1 28-3L24 0V21L28 25C60 27 78 28 82 29 86 30 89 32 92 35 95 38 97 43 99 49 100 55 101 76 103 112 104 148 105 175 105 193V446L103 550C102 586 101 611 100 625 98 639 97 647 95 650 93 652 89 654 85 656 80 657 60 658 26 658L21 662V683L25 687C87 694 140 706 183 723Z"/>
</g>
<g id="font_0_97">
<path transform="matrix(.001,0,0,.001,0,0)" d="M104 331 84 336 81 341V401C138 444 194 466 250 466 287 466 318 459 343 445 367 431 385 413 396 392 407 371 413 347 413 319L411 221V75C411 55 412 43 415 39 417 35 420 32 424 30 428 28 434 27 444 27L472 24 476 20V0L472-2C448 0 426 0 406 0 386 0 362 0 335-2L328 3 330 82 224 0C206-7 186-11 165-11 139-11 116-6 98 2 79 11 65 24 55 41 45 58 40 79 40 103 40 151 55 188 85 215 115 241 196 264 330 284 330 332 319 365 298 385 276 405 247 415 211 415 192 415 175 412 160 406 144 400 135 396 133 393 131 389 122 369 107 333L104 331ZM330 254C238 238 181 222 159 204 137 186 126 159 126 123 126 72 151 47 202 47 245 47 288 72 330 122V254ZM247 496V496ZM237-28V-28Z"/>
</g>
<g id="font_0_100">
<path transform="matrix(.001,0,0,.001,0,0)" d="M329 662V683L333 687C395 694 447 706 490 723L499 717C495 679 494 604 494 492V172C494 139 494 110 495 86 496 61 498 46 501 42 504 38 509 34 516 31 522 28 541 25 573 23L577 19V0L573-3C537-1 510 0 491 0 473 0 448-1 416-3L410 1C411 33 412 55 412 68 412 70 412 76 412 87 394 73 376 59 358 43 332 19 315 5 307 0 291-7 270-11 243-11 197-11 159 0 128 22 96 44 74 72 61 106 47 140 41 176 41 212 41 248 48 284 62 318 76 352 95 376 121 392 146 408 174 424 204 441 234 457 264 466 294 466 335 466 374 456 412 436L410 544C409 582 408 608 407 623 405 638 404 647 402 650 400 652 396 654 392 656 387 657 367 658 333 658L329 662ZM412 352C392 374 369 392 345 404 320 416 295 422 271 422 243 422 218 414 194 400 170 385 153 363 143 334 133 305 128 273 128 239 128 182 142 136 171 102 199 67 236 50 280 50 303 50 324 55 343 66 361 77 376 92 388 111 400 129 407 148 409 166 411 184 412 219 412 269V352Z"/>
</g>
<g id="font_0_106">
<path transform="matrix(.001,0,0,.001,0,0)" d="M118 684C133 684 146 678 157 668 167 657 173 644 173 628 173 613 167 600 157 590 146 579 133 574 118 574 102 574 89 579 79 590 68 600 63 613 63 628 63 643 68 656 79 667 89 678 102 684 118 684ZM-3 425 0 429C62 436 114 448 157 465L166 459C162 416 161 356 161 280V190L162 34C162-18 157-67 149-113 140-159 120-198 90-230 59-262 24-279-15-279-17-279-21-279-25-279L-30-251-26-245C-18-245-13-246-9-246 1-246 11-243 22-237 32-231 42-221 50-208 58-195 65-179 69-161 73-142 75-113 77-73 78-33 79-7 79 5V290C79 302 78 320 77 342 76 364 75 378 74 384 73 390 70 394 66 396 62 398 54 399 42 399L0 400-3 404V425Z"/>
</g>
<g id="font_0_99">
<path transform="matrix(.001,0,0,.001,0,0)" d="M424 52 404 20C362-2 315-14 264-14 192-14 136 7 97 49 58 91 39 146 39 214 39 244 42 272 49 296 55 320 64 339 74 355 84 370 96 382 108 392 120 401 141 414 171 430 200 446 222 457 237 462 252 467 273 470 300 470 350 470 391 460 424 441 418 404 413 363 410 318L405 314H385L381 318C379 345 377 363 375 373 373 383 360 393 336 404 312 414 287 420 261 420 234 420 210 414 190 403 169 391 153 373 143 348 132 322 127 292 127 256 127 226 131 196 139 168 147 140 159 116 173 98 187 79 205 64 228 53 250 41 276 36 304 36 322 36 339 38 356 42 372 46 392 54 414 65L424 52Z"/>
</g>
<g id="font_0_82">
<path transform="matrix(.001,0,0,.001,0,0)" d="M21 687 24 690C84 687 130 686 164 686 200 686 250 687 313 689 335 689 352 690 363 690 445 690 500 675 530 645 559 615 574 580 574 539 574 511 566 484 552 458 538 432 517 409 489 391 461 372 422 358 374 349 382 336 399 314 423 283L492 191C514 161 538 129 564 95 590 61 606 41 614 37 621 33 627 30 633 29 639 28 647 28 659 28L663 24V1L659-2C643 0 624 0 603 0 579 0 554 0 527-2 505 24 469 71 421 139 365 217 308 289 250 356L254 372C271 370 284 370 294 370 350 370 394 383 426 410 458 437 474 475 474 523 474 565 459 598 431 620 402 642 363 653 315 653 281 653 248 648 218 639 213 631 211 570 211 456V230 135C211 98 212 74 214 63 216 52 218 45 221 42 224 38 230 35 239 33 247 30 269 28 304 27L308 24V0L304-3C302-3 274-2 218 0 195 0 177 0 164 0 154 0 107-1 24-3L21 0V24L24 27C54 28 75 30 85 32 95 34 101 36 105 39 108 42 111 49 113 59 115 69 117 92 117 127L118 230V456L117 551C116 588 115 612 114 623 112 633 110 640 107 644 104 648 98 651 89 653 80 655 58 657 24 659L21 662V687Z"/>
</g>
<g id="font_0_102">
<path transform="matrix(.001,0,0,.001,0,0)" d="M281 25 285 21V0L281-3C271-3 252-2 224-1 198 0 172 0 146 0 110 0 71-1 28-3L24 0V21L28 25C59 27 77 28 81 29 85 30 89 32 92 35 95 38 97 43 98 49 99 55 100 76 102 112 103 148 104 175 104 193V382L42 378 37 382V395L41 399 104 432V461C104 493 105 518 108 535 111 552 117 568 125 582 133 596 147 613 167 635 187 657 204 674 219 688 234 702 247 711 258 716 269 721 282 724 297 724 309 724 323 721 337 716V636L326 632C307 648 286 656 262 656 245 656 230 652 218 645 206 638 197 627 193 611 188 595 186 569 186 533V432H238C265 432 291 433 315 435L319 430 311 387 306 382C296 382 290 382 287 382L224 383H186V186C186 175 186 151 188 114 189 77 190 55 192 49 193 42 195 37 199 34 202 31 207 29 214 28 221 26 243 25 281 25Z"/>
</g>
<g id="font_0_45">
<path transform="matrix(.001,0,0,.001,0,0)" d="M22 210V217L44 282H305V275L282 210H22Z"/>
</g>
</defs>
<path transform="matrix(1,0,0,-1,0,274.99626)" d="M0 0H404.27815V274.99626H0Z" fill="#ffffff"/>
<path transform="matrix(1,0,0,-1,0,274.99626)" d="M62.278127 50.35625H397.07814V267.79627H62.278127Z" fill="#ffffff"/>
<path transform="matrix(1,0,0,-1,0,274.99626)" d="M77.49631 50.35625V46.85625"/>
<path transform="matrix(1,0,0,-1,0,274.99626)" stroke-width=".8" stroke-linecap="butt" stroke-linejoin="round" fill="none" stroke="#000000" d="M77.49631 50.35625V46.85625"/>
<use data-text="0" xlink:href="#font_0_48" transform="matrix(16,0,0,-16,73.49631,243.21813)"/>
<path transform="matrix(1,0,0,-1,0,274.99626)" d="M179.29016 50.35625V46.85625"/>
<path transform="matrix(1,0,0,-1,0,274.99626)" stroke-width=".8" stroke-linecap="butt" stroke-linejoin="round" fill="none" stroke="#000000" d="M179.29016 50.35625V46.85625"/>
<use data-text="1" xlink:href="#font_0_49" transform="matrix(16,0,0,-16,167.29016,243.21813)"/>
<use data-text="0" xlink:href="#font_0_48" transform="matrix(16,0,0,-16,175.29016,243.21813)"/>
<use data-text="0" xlink:href="#font_0_48" transform="matrix(16,0,0,-16,183.29016,243.21813)"/>
<path transform="matrix(1,0,0,-1,0,274.99626)" d="M281.084 50.35625V46.85625"/>
<path transform="matrix(1,0,0,-1,0,274.99626)" stroke-width=".8" stroke-linecap="butt" stroke-linejoin="round" fill="none" stroke="#000000" d="M281.084 50.35625V46.85625"/>
<use data-text="2" xlink:href="#font_0_50" transform="matrix(16,0,0,-16,269.084,243.21813)"/>
<use data-text="0" xlink:href="#font_0_48" transform="matrix(16,0,0,-16,277.084,243.21813)"/>
<use data-text="0" xlink:href="#font_0_48" transform="matrix(16,0,0,-16,285.084,243.21813)"/>
<path transform="matrix(1,0,0,-1,0,274.99626)" d="M382.87788 50.35625V46.85625"/>
<path transform="matrix(1,0,0,-1,0,274.99626)" stroke-width=".8" stroke-linecap="butt" stroke-linejoin="round" fill="none" stroke="#000000" d="M382.87788 50.35625V46.85625"/>
<use data-text="3" xlink:href="#font_0_51" transform="matrix(16,0,0,-16,370.87788,243.21813)"/>
<use data-text="0" xlink:href="#font_0_48" transform="matrix(16,0,0,-16,378.87788,243.21813)"/>
<use data-text="0" xlink:href="#font_0_48" transform="matrix(16,0,0,-16,386.87788,243.21813)"/>
<use data-text="t" xlink:href="#font_0_116" transform="matrix(16,0,0,-16,195.80313,263.29624)"/>
<use data-text="i" xlink:href="#font_0_105" transform="matrix(16,0,0,-16,201.01914,263.29624)"/>
<use data-text="m" xlink:href="#font_0_109" transform="matrix(16,0,0,-16,205.67513,263.29624)"/>
<use data-text="e" xlink:href="#font_0_101" transform="matrix(16,0,0,-16,219.80313,263.29624)"/>
<use data-text="s" xlink:href="#font_0_115" transform="matrix(16,0,0,-16,227.46714,263.29624)"/>
<use data-text="t" xlink:href="#font_0_116" transform="matrix(16,0,0,-16,234.25113,263.29624)"/>
<use data-text="e" xlink:href="#font_0_101" transform="matrix(16,0,0,-16,239.46714,263.29624)"/>
<use data-text="p" xlink:href="#font_0_112" transform="matrix(16,0,0,-16,247.13114,263.29624)"/>
<use data-text="s" xlink:href="#font_0_115" transform="matrix(16,0,0,-16,256.74714,263.29624)"/>
<path transform="matrix(1,0,0,-1,0,274.99626)" d="M62.278127 52.719728H58.778127"/>
<path transform="matrix(1,0,0,-1,0,274.99626)" stroke-width=".8" stroke-linecap="butt" stroke-linejoin="round" fill="none" stroke="#000000" d="M62.278127 52.719728H58.778127"/>
<use data-text="0" xlink:href="#font_0_48" transform="matrix(16,0,0,-16,27.278126,228.06558)"/>
<use data-text="." xlink:href="#font_0_46" transform="matrix(16,0,0,-16,35.278127,228.06558)"/>
<use data-text="7" xlink:href="#font_0_55" transform="matrix(16,0,0,-16,39.278127,228.06558)"/>
<use data-text="0" xlink:href="#font_0_48" transform="matrix(16,0,0,-16,47.278127,228.06558)"/>
<path transform="matrix(1,0,0,-1,0,274.99626)" d="M62.278127 182.71103H58.778127"/>
<path transform="matrix(1,0,0,-1,0,274.99626)" stroke-width=".8" stroke-linecap="butt" stroke-linejoin="round" fill="none" stroke="#000000" d="M62.278127 182.71103H58.778127"/>
<use data-text="1" xlink:href="#font_0_49" transform="matrix(16,0,0,-16,27.278126,98.07428)"/>
<use data-text="." xlink:href="#font_0_46" transform="matrix(16,0,0,-16,35.278127,98.07428)"/>
<use data-text="2" xlink:href="#font_0_50" transform="matrix(16,0,0,-16,39.278127,98.07428)"/>
<use data-text="5" xlink:href="#font_0_53" transform="matrix(16,0,0,-16,47.278127,98.07428)"/>
<use data-text="H" xlink:href="#font_0_72" transform="matrix(0,-16,-16,-0,18.778126,182.49813)"/>
<use data-text="o" xlink:href="#font_0_111" transform="matrix(0,-16,-16,-0,18.778126,169.18613)"/>
<use data-text="p" xlink:href="#font_0_112" transform="matrix(0,-16,-16,-0,18.778126,160.45012)"/>
<use data-text="p" xlink:href="#font_0_112" transform="matrix(0,-16,-16,-0,18.778126,150.83412)"/>
<use data-text="e" xlink:href="#font_0_101" transform="matrix(0,-16,-16,-0,18.778126,141.21813)"/>
<use data-text="r" xlink:href="#font_0_114" transform="matrix(0,-16,-16,-0,18.778126,133.55413)"/>
<use data-text=" " xlink:href="#font_0_32" transform="matrix(0,-16,-16,-0,18.778126,127.234119)"/>
<use data-text="h" xlink:href="#font_0_104" transform="matrix(0,-16,-16,-0,18.778126,123.234119)"/>
<use data-text="e" xlink:href="#font_0_101" transform="matrix(0,-16,-16,-0,18.778126,113.92212)"/>
<use data-text="i" xlink:href="#font_0_105" transform="matrix(0,-16,-16,-0,18.778126,106.25812)"/>
<use data-text="g" xlink:href="#font_0_103" transform="matrix(0,-16,-16,-0,18.778126,101.60212)"/>
<use data-text="h" xlink:href="#font_0_104" transform="matrix(0,-16,-16,-0,18.778126,92.706119)"/>
<use data-text="t" xlink:href="#font_0_116" transform="matrix(0,-16,-16,-0,18.778126,83.39412)"/>
<use data-text=" " xlink:href="#font_0_32" transform="matrix(0,-16,-16,-0,18.778126,78.178119)"/>
<use data-text="(" xlink:href="#font_0_40" transform="matrix(0,-16,-16,-0,18.778126,74.178119)"/>
<use data-text="m" xlink:href="#font_0_109" transform="matrix(0,-16,-16,-0,18.778126,68.85011)"/>
<use data-text=")" xlink:href="#font_0_41" transform="matrix(0,-16,-16,-0,18.778126,54.722116)"/>
<g clip-path="url(#clip_1)">
<path transform="matrix(1,0,0,-1,0,274.99626)" stroke-width="3" stroke-linecap="square" stroke-linejoin="round" fill="none" stroke="#1f77b4" d="M77.49631 182.55507 78.514247 182.41704 79.53218 182.12154 80.550128 181.65209 81.56806 181.04573 82.586 180.28484 83.603939 179.35953 84.62188 178.26856 86.65775 175.60129 87.67569 174.02907 88.693637 172.91744 89.71157 172.16875 90.72951 171.6906 91.747447 171.4087 93.783329 171.21096 95.8192 171.29132 98.87302 171.96477 103.96271 173.44326 108.03446 174.53266 111.08828 175.09166 113.12416 175.28798 115.160037 175.31156 117.195919 175.0592 119.23179 174.4331 121.26767 173.33884 123.30354 171.77793 125.33942 169.75296 127.3753 167.3581 129.41118 164.6625 132.465 160.1292 134.50087 156.77649 136.53675 153.11133 138.57262 149.05106 140.6085 144.5139 141.62644 142.9344 142.64438 141.93097 143.66231 141.4024 144.68025 141.33908 145.6982 141.65843 146.71613 142.36476 147.73407 143.40486 148.75202 144.79415 149.76995 146.50695 150.78789 148.56923 151.80582 150.9157 153.8417 156.54183 155.87758 163.1818 157.91345 170.65117 165.03903 198.4903 167.0749 204.56761 168.09284 207.18575 170.12873 211.30109 171.14665 213.08208 173.18254 215.89446 174.20047 217.01694 175.21842 217.93556 176.23635 218.69898 177.25429 219.29779 179.29016 220.1118 180.3081 220.2995 182.34398 220.30184 186.41574 220.54019 187.43367 220.33097 188.45162 219.99025 190.48749 220.3689 191.50543 220.34119 192.52336 220.14711 193.5413 219.72797 194.55925 219.12712 195.57718 218.31212 196.59513 217.30872 197.61307 216.09966 198.631 214.70012 200.66687 211.31131 202.70276 207.14933 204.73863 202.22643 206.7745 196.55204 208.81038 190.14138 209.82833 186.6636 210.84627 183.93965 211.8642 181.65349 212.88214 179.721 214.91802 176.51982 218.98978 170.75102 221.02565 167.3515 223.06153 163.45049 224.07947 161.31406 225.0974 160.64427 226.11534 161.11661 227.13329 162.5048 228.15122 164.63967 229.16916 167.38364 230.18709 170.60494 232.22298 178.11058 234.25885 186.63422 237.31267 200.59659 240.36649 214.57154 241.38442 218.70665 243.4203 225.58779 245.45618 231.57875 247.49205 236.65056 249.52793 240.89974 251.56381 244.42136 257.67146 252.98923 258.68937 254.10483 260.72526 255.87645 262.76115 257.12825 264.797 258.98698 265.81495 259.6943 266.8329 260.24473 267.85084 260.59599 268.86878 260.76988 269.8867 260.75587 270.90464 260.56083 271.92259 260.18403 272.94053 259.6276 273.95848 258.8925 274.97639 257.97859 275.99433 256.88624 277.01228 255.6163 279.04817 252.54405 281.084 248.76941 283.1199 244.30414 285.1558 239.15888 287.19166 233.34095 289.22755 226.85994 291.2634 219.72899 293.2993 211.9601 295.33518 203.56188 297.37104 194.53978 298.38899 191.33129 299.40693 189.03647 300.42488 187.45352 301.4428 186.41764 302.46073 185.78522 303.47868 185.42926 305.51457 185.1269 307.5504 184.85315 308.56837 184.59705 309.5863 184.22084 310.60426 183.70835 311.6222 183.0493 312.6401 182.24048 314.676 180.19751 316.71189 177.63912 318.74775 174.6624 320.78364 171.27243 322.81953 167.32985 324.85539 162.8482 326.89128 157.8321 327.9092 155.12755 328.92713 154.06534 329.94508 154.23435 330.963 155.33353 331.98097 157.15059 332.9989 159.5359 334.0168 162.371 336.0527 169.0475 338.0886 176.7006 341.1424 189.43314 345.21415 207.08164 347.25004 213.88843 349.28593 219.78928 351.32179 224.82726 353.35768 229.07852 355.39356 232.57404 357.4294 235.36582 359.4653 237.53328 361.50117 239.11479 366.59086 241.73435 368.62675 242.1635 370.66264 243.38866 371.68055 243.78531 372.6985 244.02443 373.71644 244.06143 374.73439 243.9205 375.75233 243.59366 376.77027 243.08869 377.78819 242.40459 378.80613 241.54496 379.82408 240.50629 380.842 239.29204 381.85997 237.90067"/>
</g>
<g clip-path="url(#clip_2)">
<path transform="matrix(1,0,0,-1,0,274.99626)" stroke-width="3" stroke-linecap="square" stroke-linejoin="round" fill="none" stroke="#ff7f0e" d="M77.49631 182.55509 78.514247 182.36454 79.53218 181.43877 80.550128 182.9556 81.56806 181.28376 82.586 180.32617 83.603939 178.12628 84.62188 178.53643 85.63982 177.87529 86.65775 176.16162 87.67569 175.29291 88.693637 174.217 89.71157 173.40883 90.72951 173.28812 91.747447 171.39678 92.76539 173.67276 93.783329 172.76824 94.80126 172.9028 95.8192 172.52339 96.83714 173.14128 97.85508 173.0417 99.89095 173.2513 100.9089 174.02478 101.926837 174.20825 102.94477 174.65843 103.96271 174.57798 104.98065 174.70972 105.99859 177.08818 107.016529 176.4259 108.03446 176.50373 109.05241 177.22939 110.07034 176.92217 111.08828 177.76538 112.10622 176.41497 113.12416 177.23128 114.1421 177.75539 115.160037 177.97118 116.17797 177.03702 117.195919 176.8796 118.21385 175.26396 119.23179 176.49295 120.249729 176.78902 121.26767 176.81702 122.28561 173.51195 123.30354 174.55585 124.32148 173.26412 125.33942 172.36392 126.35736 170.0264 127.3753 168.44419 128.39324 169.57585 129.41118 166.34525 131.44705 162.22174 132.465 160.911 133.48293 159.84674 134.50087 156.71065 135.5188 157.64838 137.55469 153.58742 138.57262 149.11302 139.59056 147.55625 140.6085 144.92252 141.62644 144.96692 142.64438 142.70291 143.66231 141.84024 144.68025 141.2425 145.6982 143.78545 146.71613 142.9988 147.73407 143.66654 148.75202 147.07463 149.76995 147.49353 150.78789 152.07404 151.80582 152.87003 152.82376 154.84235 153.8417 156.42626 155.87758 163.13283 156.89553 165.45926 157.91345 168.92017 158.9314 174.28401 159.94933 176.25606 160.96727 179.28466 164.02109 191.15375 165.03903 195.72193 166.05696 198.11736 167.0749 201.88988 168.09284 204.23085 169.11078 205.89922 170.12873 207.98186 171.14665 210.32515 172.1646 207.59856 173.18254 212.93389 174.20047 214.80704 175.21842 214.11 176.23635 213.815 177.25429 216.07649 178.27223 215.09139 181.32604 216.53537 182.34398 213.86048 183.36193 216.88707 184.37985 215.70284 185.3978 215.43912 186.41574 214.49396 187.43367 214.23207 188.45162 218.0973 189.46955 214.28656 190.48749 214.45395 191.50543 211.47782 192.52336 211.26303 193.5413 212.70873 194.55925 212.11998 195.57718 211.14955 196.59513 207.62212 197.61307 209.95705 198.631 207.8982 200.66687 205.3532 201.68482 202.48305 202.70276 202.1842 204.73863 192.7599 205.75656 189.95389 207.79245 186.24082 208.81038 181.47284 209.82833 178.3996 210.84627 177.90857 212.88214 171.80985 213.90007 170.77245 215.93596 169.27625 216.95389 166.66483 217.97183 166.54317 220.0077 160.49663 221.02565 156.74979 222.04358 159.05988 223.06153 159.35013 224.07947 162.15883 226.11534 164.509 227.13329 169.95915 229.16916 176.91555 230.18709 182.01174 231.20503 185.28943 232.22298 188.99431 234.25885 200.0288 235.2768 207.11576 236.29473 213.17006 237.31267 214.0877 238.3306 218.16695 240.36649 224.5387 241.38442 230.47243 242.40236 228.29114 243.4203 234.22628 244.43824 233.54579 245.45618 236.38362 246.4741 239.61377 247.49205 241.65114 248.51 243.03453 249.52793 246.94599 250.54587 246.09116 251.56381 246.608 252.58174 248.4526 253.59969 249.08 254.61762 252.3697 255.63556 253.93894 256.6535 252.05922 257.67146 251.69092 258.68937 255.5308 259.7073 253.47354 260.72526 254.58171 261.7432 253.75833 262.76115 254.36719 263.77909 253.00466 264.797 257.15415 265.81495 258.4975 267.85084 257.85734 268.86878 255.51053 269.8867 256.94023 270.90464 254.39774 271.92259 254.50102 272.94053 251.48502 273.95848 251.4272 274.97639 251.70078 275.99433 249.15039 277.01228 246.93675 278.0302 246.75875 279.04817 245.16956 280.06608 241.91092 281.084 239.47745 283.1199 232.29563 284.13786 229.66037 285.1558 228.25135 286.1737 223.72122 287.19166 221.64209 289.22755 216.12123 290.24549 211.31455 292.28135 203.19315 293.2993 196.9804 294.31724 193.09145 295.33518 188.45735 296.3531 185.01111 297.37104 185.5657 299.40693 183.82755 300.42488 183.54907 302.46073 182.59186 303.47868 183.33054 304.4966 182.31969 305.51457 181.86658 306.5325 181.74706 307.5504 180.8742 309.5863 179.92415 310.60426 178.50554 311.6222 179.23302 312.6401 176.51291 313.65806 173.34095 314.676 171.6528 315.69395 172.28662 316.71189 168.53754 317.7298 168.88658 318.74775 165.76802 319.7657 164.2076 320.78364 159.65039 321.80158 160.15459 322.81953 156.64974 323.83744 156.09256 324.85539 157.11457 325.87333 159.5295 326.89128 161.54749 327.9092 164.94989 328.92713 167.45114 329.94508 169.54447 330.963 174.31586 331.98097 177.94046 332.9989 184.17737 334.0168 184.66606 335.03477 191.71657 336.0527 194.9317 337.07066 199.24103 338.0886 205.9361 339.10655 206.63149 340.12446 212.0671 341.1424 215.98932 342.16035 213.81174 343.17829 220.48873 344.19624 221.21169 346.2321 227.30687 347.25004 228.3708 348.26799 234.35132 349.28593 234.50724 350.30384 232.7466 351.32179 235.51454 352.33973 237.7274 353.35768 237.64958 354.3756 239.30237 355.39356 236.56749 356.41148 240.79666 357.4294 242.51915 358.44737 250.02234 360.48326 243.26207 361.50117 243.06169 362.5191 243.92266 363.53706 245.64763 364.555 244.3788 365.57295 244.0473 366.59086 245.55455 367.6088 245.65885 368.62675 246.89933 369.64469 249.84456 370.66264 247.6486 372.6985 242.53549 373.71644 241.72412 374.73439 243.04039 375.75233 234.67032 376.77027 236.30857 377.78819 237.07764 378.80613 230.27594 379.82408 233.39614 380.842 229.01303 381.85997 222.57541"/>
</g>
<g clip-path="url(#clip_3)">
<path transform="matrix(1,0,0,-1,0,274.99626)" stroke-width="3" stroke-linecap="square" stroke-linejoin="round" fill="none" stroke="#2ca02c" d="M77.49631 182.55509 78.514247 182.41608 79.53218 182.12065 80.550128 181.6503 81.56806 181.04097 82.586 180.27565 83.603939 179.34546 84.62188 178.25064 86.65775 175.5739 87.67569 173.99842 88.693637 172.90782 89.71157 172.19426 90.72951 171.76065 91.747447 171.53182 93.783329 171.45334 95.8192 171.72531 98.87302 172.61016 105.99859 174.88118 109.05241 175.60443 111.08828 175.92794 113.12416 176.09818 115.160037 176.07958 117.195919 175.75429 119.23179 175.0439 121.26767 173.92014 122.28561 173.15114 123.30354 172.22655 125.33942 169.90184 127.3753 166.9304 132.465 159.04381 135.5188 153.79428 137.55469 149.90068 139.59056 145.57663 140.6085 143.22939 141.62644 141.70174 142.64438 140.78749 143.66231 140.34766 144.68025 140.32444 145.6982 140.67353 146.71613 141.36183 147.73407 142.36804 148.75202 143.682 149.76995 145.30007 150.78789 147.21945 151.80582 149.43795 153.8417 154.68187 155.87758 160.86493 157.91345 167.92217 160.96727 179.81218 164.02109 191.8427 166.05696 198.76978 168.09284 204.49904 170.12873 208.8125 171.14665 210.65117 172.1646 212.25688 173.18254 213.637 174.20047 214.82318 175.21842 215.8157 176.23635 216.6269 177.25429 217.27606 178.27223 217.77841 179.29016 218.1439 180.3081 218.3742 186.41574 218.48758 187.43367 218.29109 189.46955 217.52242 191.50543 217.74579 192.52336 217.639 193.5413 217.32842 194.55925 216.80768 195.57718 216.07823 196.59513 215.14282 197.61307 214.004 198.631 212.66426 200.66687 209.3894 202.70276 205.33069 204.73863 200.49994 206.7745 194.90926 208.81038 188.57563 209.82833 185.13436 210.84627 182.48043 211.8642 180.32128 213.90007 176.74428 218.98978 168.74422 221.02565 164.95383 223.06153 160.64499 224.07947 158.29642 225.0974 157.32965 226.11534 157.4463 227.13329 158.421 228.15122 160.09221 229.16916 162.34004 230.18709 165.06204 232.22298 171.5856 234.25885 179.1768 236.29473 187.53992 242.40236 213.71675 244.43824 220.26897 246.4741 225.85717 248.51 230.5555 250.54587 234.45664 252.58174 237.58518 257.67146 244.17995 259.7073 246.09122 261.7432 247.43758 263.77909 248.2737 264.797 248.58081 266.8329 249.83278 267.85084 250.23923 268.86878 250.45832 269.8867 250.48954 270.90464 250.33525 271.92259 249.9975 272.94053 249.47835 273.95848 248.77973 274.97639 247.90274 275.99433 246.84822 277.01228 245.61647 279.04817 242.6247 281.084 238.93639 283.1199 234.56026 285.1558 229.50569 287.19166 223.78124 289.22755 217.39467 291.2634 210.3568 293.2993 202.6782 295.33518 194.36542 296.3531 189.98189 297.37104 186.8558 298.38899 184.6438 299.40693 183.07976 300.42488 181.93564 304.4966 178.16869 305.51457 176.91927 306.5325 175.47222 308.56837 171.96849 310.60426 167.63228 312.6401 162.43956 314.676 156.37786 316.71189 149.47859 317.7298 145.76793 318.74775 142.6277 319.7657 139.94484 321.80158 135.5561 322.81953 133.74118 323.83744 132.15847 324.85539 130.79819 325.87333 129.65459 326.89128 128.72396 327.9092 128.00507 328.92713 127.49936 330.963 126.897518 332.9989 126.56959 335.03477 126.48436 336.0527 126.616359 337.07066 126.90693 338.0886 127.37181 339.10655 128.02457 340.12446 128.87374 341.1424 129.91637 343.17829 132.53328 345.21415 134.97621 346.2321 135.97748 347.25004 136.75052 348.26799 137.26494 349.28593 137.51622 350.30384 137.24135 351.32179 136.71192 352.33973 135.96918 353.35768 135.01374 354.3756 133.8619 355.39356 132.5177 357.4294 129.25925 359.4653 125.25377 361.50117 120.516178 363.53706 115.05661 365.57295 108.95754 367.6088 102.3214 370.66264 91.30095 375.75233 71.60177 377.78819 63.1979 378.80613 58.744539 379.82408 53.245229 381.85997 40.619134"/>
</g>
<g clip-path="url(#clip_4)">
<path transform="matrix(1,0,0,-1,0,274.99626)" stroke-width="3" stroke-linecap="square" stroke-linejoin="round" fill="none" stroke="#d62728" d="M77.49631 182.55509 78.514247 182.41503 79.53218 182.1186 80.550128 181.64754 81.56806 181.03807 82.586 180.27281 83.603939 179.34426 85.63982 176.9895 88.693637 172.90583 89.71157 172.20041 90.72951 171.77849 91.747447 171.56334 93.783329 171.50675 95.8192 171.7465 98.87302 172.60913 104.98065 174.54109 109.05241 175.47029 111.08828 175.74559 113.12416 175.82202 115.160037 175.7348 117.195919 175.36743 119.23179 174.6358 121.26767 173.48549 123.30354 171.8917 124.32148 170.92043 126.35736 168.57529 128.39324 165.92652 131.44705 161.48613 133.48293 158.21074 135.5188 154.63938 137.55469 150.72223 139.59056 146.37541 141.62644 141.54479 142.64438 140.07306 143.66231 139.29076 144.68025 139.09986 145.6982 139.41484 146.71613 140.17275 147.73407 141.31758 148.75202 142.81656 149.76995 144.64246 150.78789 146.79308 152.82376 151.9453 154.85964 158.10669 156.89553 165.10654 158.9314 172.98265 164.02109 193.69382 166.05696 200.61644 168.09284 206.34859 170.12873 210.75167 172.1646 214.19942 173.18254 215.61228 174.20047 216.834 175.21842 217.86272 176.23635 218.72318 177.25429 219.43498 178.27223 220.0053 179.29016 220.44185 180.3081 220.72106 184.37985 221.20984 185.3978 221.403 186.41574 221.44278 187.43367 221.34535 188.45162 221.1239 190.48749 221.88513 191.50543 222.03057 192.52336 221.96836 194.55925 221.37004 195.57718 220.66374 196.59513 219.75432 197.61307 218.63826 198.631 217.33562 199.64894 215.82143 201.68482 212.20204 202.70276 210.19034 204.73863 205.3839 206.7745 199.8208 208.81038 193.5233 210.84627 186.49073 211.8642 183.80118 212.88214 181.68505 213.90007 179.98926 215.93596 177.3559 220.0077 172.67884 222.04358 169.7896 224.07947 166.37444 225.0974 164.47365 226.11534 164.06111 227.13329 164.80608 228.15122 166.4697 229.16916 168.8776 230.18709 171.87509 232.22298 179.13922 234.25885 187.54192 237.31267 201.42162 240.36649 215.65682 241.38442 219.93915 243.4203 227.14943 245.45618 233.43704 247.49205 238.77596 249.52793 243.29267 251.56381 247.04657 256.6535 254.80463 258.68937 257.31575 260.72526 259.26045 266.8329 263.79783 267.85084 264.23487 268.86878 264.48478 269.8867 264.60493 270.90464 264.4833 271.92259 264.1793 272.94053 263.7244 273.95848 263.05763 275.99433 261.2286 277.01228 260.03434 279.04817 257.09513 281.084 253.45557 283.1199 249.12802 285.1558 244.12169 287.19166 238.445 289.22755 232.11655 291.2634 225.15589 293.2993 217.5516 295.33518 209.30402 298.38899 195.72737 299.40693 190.88744 300.42488 187.80387 301.4428 185.95967 302.46073 184.88999 303.47868 184.3903 304.4966 184.30872 305.51457 184.53955 307.5504 185.3324 309.5863 186.17125 311.6222 186.69025 312.6401 186.78478 313.65806 186.75576 314.676 186.59581 315.69395 186.30191 317.7298 185.36556 318.74775 184.70598 319.7657 183.86516 320.78364 182.88018 321.80158 181.72852 323.83744 178.90207 325.87333 175.4146 327.9092 171.25812 329.94508 166.52013 331.98097 161.24616 334.0168 155.424 335.03477 152.27098 336.0527 150.8519 337.07066 150.70978 338.0886 151.5162 339.10655 153.03173 340.12446 155.09252 341.1424 157.57791 343.17829 163.51541 345.21415 170.50936 347.25004 178.29611 350.30384 191.23001 353.35768 204.62136 355.39356 212.27799 357.4294 218.46735 359.4653 223.74112 361.50117 228.24515 363.53706 232.00801 365.57295 235.05068 366.59086 236.42183 368.62675 238.66799 371.68055 241.51387 373.71644 242.92859 376.77027 244.5314 377.78819 244.8367 379.82408 245.79904 380.842 246.05837 381.85997 246.06603"/>
</g>
<g clip-path="url(#clip_5)">
<path transform="matrix(1,0,0,-1,0,274.99626)" stroke-width="2" stroke-linecap="butt" stroke-dasharray="7.4,3.2" stroke-linejoin="round" fill="none" stroke="#ff0000" d="M77.49631 52.719728H381.85997"/>
</g>
<path transform="matrix(1,0,0,-1,0,274.99626)" stroke-width=".8" stroke-linecap="square" stroke-miterlimit="10" stroke-linejoin="miter" fill="none" stroke="#000000" d="M62.278127 50.35625V267.79627"/>
<path transform="matrix(1,0,0,-1,0,274.99626)" stroke-width=".8" stroke-linecap="square" stroke-miterlimit="10" stroke-linejoin="miter" fill="none" stroke="#ffffff" d="M397.07814 50.35625V267.79627"/>
<path transform="matrix(1,0,0,-1,0,274.99626)" stroke-width=".8" stroke-linecap="square" stroke-miterlimit="10" stroke-linejoin="miter" fill="none" stroke="#000000" d="M62.278127 50.35625H397.07814"/>
<path transform="matrix(1,0,0,-1,0,274.99626)" stroke-width=".8" stroke-linecap="square" stroke-miterlimit="10" stroke-linejoin="miter" fill="none" stroke="#ffffff" d="M62.278127 267.79627H397.07814"/>
<path transform="matrix(1,0,0,-1,0,274.99626)" stroke-width="3" stroke-linecap="square" stroke-linejoin="round" fill="none" stroke="#1f77b4" d="M76.67812 137.49063H83.87813 91.078128"/>
<use data-text="l" xlink:href="#font_0_108" transform="matrix(16,0,0,-16,94.27812,143.10562)"/>
<use data-text="o" xlink:href="#font_0_111" transform="matrix(16,0,0,-16,98.93412,143.10562)"/>
<use data-text="a" xlink:href="#font_0_97" transform="matrix(16,0,0,-16,107.67012,143.10562)"/>
<use data-text="d" xlink:href="#font_0_100" transform="matrix(16,0,0,-16,115.67012,143.10562)"/>
<use data-text="e" xlink:href="#font_0_101" transform="matrix(16,0,0,-16,125.44612,143.10562)"/>
<use data-text="d" xlink:href="#font_0_100" transform="matrix(16,0,0,-16,133.11013,143.10562)"/>
<path transform="matrix(1,0,0,-1,0,274.99626)" stroke-width="3" stroke-linecap="square" stroke-linejoin="round" fill="none" stroke="#ff7f0e" d="M76.67812 116.6125H83.87813 91.078128"/>
<use data-text="s" xlink:href="#font_0_115" transform="matrix(16,0,0,-16,94.27812,163.98375)"/>
<use data-text="a" xlink:href="#font_0_97" transform="matrix(16,0,0,-16,101.06212,163.98375)"/>
<use data-text="m" xlink:href="#font_0_109" transform="matrix(16,0,0,-16,109.06212,163.98375)"/>
<use data-text="p" xlink:href="#font_0_112" transform="matrix(16,0,0,-16,123.190128,163.98375)"/>
<use data-text="l" xlink:href="#font_0_108" transform="matrix(16,0,0,-16,132.80612,163.98375)"/>
<use data-text="e" xlink:href="#font_0_101" transform="matrix(16,0,0,-16,137.46213,163.98375)"/>
<use data-text="d" xlink:href="#font_0_100" transform="matrix(16,0,0,-16,145.12613,163.98375)"/>
<path transform="matrix(1,0,0,-1,0,274.99626)" stroke-width="3" stroke-linecap="square" stroke-linejoin="round" fill="none" stroke="#2ca02c" d="M76.67812 95.734378H83.87813 91.078128"/>
<use data-text="p" xlink:href="#font_0_112" transform="matrix(16,0,0,-16,94.27812,184.86188)"/>
<use data-text="r" xlink:href="#font_0_114" transform="matrix(16,0,0,-16,103.89412,184.86188)"/>
<use data-text="o" xlink:href="#font_0_111" transform="matrix(16,0,0,-16,110.21413,184.86188)"/>
<use data-text="j" xlink:href="#font_0_106" transform="matrix(16,0,0,-16,118.95012,184.86188)"/>
<use data-text="e" xlink:href="#font_0_101" transform="matrix(16,0,0,-16,122.69412,184.86188)"/>
<use data-text="c" xlink:href="#font_0_99" transform="matrix(16,0,0,-16,130.35813,184.86188)"/>
<use data-text="t" xlink:href="#font_0_116" transform="matrix(16,0,0,-16,137.46213,184.86188)"/>
<use data-text="e" xlink:href="#font_0_101" transform="matrix(16,0,0,-16,142.67813,184.86188)"/>
<use data-text="d" xlink:href="#font_0_100" transform="matrix(16,0,0,-16,150.34214,184.86188)"/>
<path transform="matrix(1,0,0,-1,0,274.99626)" stroke-width="3" stroke-linecap="square" stroke-linejoin="round" fill="none" stroke="#d62728" d="M76.67812 74.85625H83.87813 91.078128"/>
<use data-text="R" xlink:href="#font_0_82" transform="matrix(16,0,0,-16,94.27812,205.73999)"/>
<use data-text="e" xlink:href="#font_0_101" transform="matrix(16,0,0,-16,104.966129,205.73999)"/>
<use data-text="f" xlink:href="#font_0_102" transform="matrix(16,0,0,-16,112.63013,205.73999)"/>
<use data-text="-" xlink:href="#font_0_45" transform="matrix(16,0,0,-16,117.95812,205.73999)"/>
<use data-text="p" xlink:href="#font_0_112" transform="matrix(16,0,0,-16,123.28612,205.73999)"/>
<use data-text="r" xlink:href="#font_0_114" transform="matrix(16,0,0,-16,132.90213,205.73999)"/>
<use data-text="o" xlink:href="#font_0_111" transform="matrix(16,0,0,-16,139.22212,205.73999)"/>
<use data-text="j" xlink:href="#font_0_106" transform="matrix(16,0,0,-16,147.95813,205.73999)"/>
</svg>
