<svg xmlns="http://www.w3.org/2000/svg" xmlns:xlink="http://www.w3.org/1999/xlink" xmlns:inkscape="http://www.inkscape.org/namespaces/inkscape" version="1.1" width="195.027" height="97.386" viewBox="0 0 195.027 97.386">
<defs>
<path id="font_0_6" d="M.3909912 .37405396C.36299134 .37304688 .34298707 .3510437 .34298707 .32904054 .34298707 .31503297 .35198976 .30003358 .37399293 .30003358 .3959961 .30003358 .41999818 .31703187 .41999818 .35603334 .41999818 .40124513 .3769989 .4423828 .30099488 .4423828 .16899109 .4423828 .13198853 .3400421 .13198853 .29605104 .13198853 .21820069 .20599365 .20323181 .23498535 .19725037 .2869873 .18727112 .33898927 .17628479 .33898927 .12133789 .33898927 .095336917 .31599427 .011245728 .19599915 .011245728 .18199158 .011245728 .10499573 .011245728 .08198547 .064331058 .11999512 .059326173 .14498902 .08934021 .14498902 .11734009 .14498902 .14033509 .1289978 .15234375 .10798645 .15234375 .08198547 .15234375 .051986696 .1313324 .051986696 .08633423 .051986696 .029281617 .10899353-.0107421879 .19499207-.0107421879 .35699464-.0107421879 .3959961 .1103363 .3959961 .15533448 .3959961 .19125366 .3769989 .21620178 .36499024 .22817993 .33799745 .25613404 .30899049 .26112367 .2649994 .27009584 .22898865 .27807618 .18899536 .2850647 .18899536 .33003236 .18899536 .3590393 .21299744 .42037965 .30099488 .42037965 .32598878 .42037965 .37599183 .41333009 .3909912 .37405396Z"/>
<path id="font_1_2" d="M.24598694 .39465333H.34799195C.36698915 .39465333 .37998963 .39465333 .37998963 .4166565 .37998963 .43066407 .36698915 .43066407 .34999085 .43066407H.25498963L.2919922 .57850649C.29299928 .58351138 .29499818 .588501 .29499818 .5924988 .29499818 .6104889 .2809906 .6244812 .26098634 .6244812 .23599243 .6244812 .22099304 .6074829 .21398926 .58151248 .20698548 .5565338 .21998596 .6044922 .17599488 .43066407H.07398987C.054992677 .43066407 .041992189 .43066407 .041992189 .4086609 .041992189 .39465333 .053985597 .39465333 .07199097 .39465333H.16699219L.10798645 .15901184C.101989749 .13404846 .09298706 .098098758 .09298706 .085128787 .09298706 .0262146 .14299011-.009765625 .19999695-.009765625 .31098939-.009765625 .37399293 .13005066 .37399293 .14303589 .37399293 .15602112 .36099244 .15602112 .35798646 .15602112 .34599305 .15602112 .34498597 .15402222 .33699037 .13703919 .30899049 .074142459 .2579956 .018234253 .20298767 .018234253 .18199158 .018234253 .16799927 .031204224 .16799927 .06715393 .16799927 .07713318 .17199707 .098098758 .17399597 .10809326L.24598694 .39465333Z"/>
<path id="font_2_4" d="M.41600038 .6529541 .3999939 .66796877C.3999939 .66696169 .3619995 .6199646 .31799317 .6199646 .29499818 .6199646 .269989 .634964 .25299073 .6449585 .22599793 .66096499 .20799256 .66796877 .19099427 .66796877 .15299988 .66796877 .13398743 .6459656 .08299255 .5899658L.09899902 .57496646C.09899902 .57595828 .13699341 .6229553 .18099976 .6229553 .20399475 .6229553 .22898865 .60795596 .24598694 .5979614 .272995 .58195498 .29100038 .57496646 .30799867 .57496646 .34599305 .57496646 .36499024 .59695437 .41600038 .6529541Z"/>
<path id="font_3_1" d="M.46299745 .2263794H.7689972C.7819977 .2263794 .80599978 .2263794 .80599978 .25038148 .80599978 .27539063 .7829895 .27539063 .7689972 .27539063H.46299745V.5821533C.46299745 .59513857 .46299745 .6191406 .43899537 .6191406 .4139862 .6191406 .4139862 .5961304 .4139862 .5821533V.27539063H.10699463C.09399414 .27539063 .069992069 .27539063 .069992069 .25138856 .069992069 .2263794 .09298706 .2263794 .10699463 .2263794H.4139862V-.08114624C.4139862-.09416199 .4139862-.11816406 .43798829-.11816406 .46299745-.11816406 .46299745-.09516907 .46299745-.08114624V.2263794Z"/>
<path id="font_3_2" d="M.33499146 .63612368C.33499146 .6630554 .33299256 .6640625 .30499269 .6640625 .24099732 .6014404 .1499939 .6004486 .10899353 .6004486V.5644531C.1329956 .5644531 .19898987 .5644531 .2539978 .592453V.08203125C.2539978 .04899597 .2539978 .035995485 .1539917 .035995485H.115997318V0C.13398743 .0009918213 .25698854 .0039978029 .2939911 .0039978029 .32499696 .0039978029 .45098878 .0009918213 .47299195 0V.035995485H.43499757C.33499146 .035995485 .33499146 .04899597 .33499146 .08203125V.63612368Z"/>
<path id="font_0_5" d="M.36698915 .3996582H.45298768C.47299195 .3996582 .48298646 .3996582 .48298646 .41966249 .48298646 .43066407 .47299195 .43066407 .45599366 .43066407H.37298585L.3939972 .5449524C.397995 .5660095 .4119873 .6370239 .41799928 .6490326 .4269867 .66804507 .44400025 .68307498 .46499635 .68307498 .46899415 .68307498 .49499513 .68307498 .5139923 .66503909 .46998597 .661026 .45999146 .6260376 .45999146 .6110382 .45999146 .58802798 .47799684 .57603457 .49699403 .57603457 .522995 .57603457 .5519867 .5980377 .5519867 .6360321 .5519867 .6820679 .5059967 .7050781 .46499635 .7050781 .43099977 .7050781 .36799623 .68707278 .33799745 .58802798 .33198548 .56700137 .32899476 .5569763 .30499269 .43066407H.23599243C.21699524 .43066407 .20599365 .43066407 .20599365 .4116516 .20599365 .3996582 .21499634 .3996582 .23399353 .3996582H.2999878L.22499085 .0048828127C.20698548-.09207153 .18998719-.18309021 .13798523-.18309021 .13398743-.18309021 .10899353-.18309021 .08999634-.16506958 .13598633-.1620636 .14498902-.12606812 .14498902-.111068729 .14498902-.08807373 .1269989-.07606506 .10798645-.07606506 .08198547-.07606506 .052993776-.09806824 .052993776-.13606262 .052993776-.18109131 .09700012-.20507813 .13798523-.20507813 .19299317-.20507813 .23298645-.14607239 .25099183-.108062747 .2829895-.04508972 .30599977 .07583618 .30699159 .082839969L.36698915 .3996582Z"/>
<path id="font_2_1" d="M.33099366-.2400055C.33099366-.23701477 .33099366-.23500061 .31399537-.21800232 .18899536-.0920105 .15699768 .09700012 .15699768 .25 .15699768 .42399598 .19499207 .59799197 .31799317 .72299197 .33099366 .73498538 .33099366 .7369995 .33099366 .73999026 .33099366 .746994 .32699586 .75 .32099916 .75 .31098939 .75 .22099304 .6819916 .1619873 .5549927 .11099243 .44499208 .09899902 .33399964 .09899902 .25 .09899902 .17199707 .10998535 .050994874 .16499329-.06201172 .22499085-.18501282 .31098939-.25 .32099916-.25 .32699586-.25 .33099366-.24700928 .33099366-.2400055Z"/>
<path id="font_0_3" d="M.20298767 .0009918213C.20298767 .066986087 .17799378 .10598755 .13899231 .10598755 .10598755 .10598755 .085998538 .08099365 .085998538 .052993776 .085998538 .025985718 .10598755 0 .13899231 0 .15098572 0 .1639862 .0039978029 .17399597 .0129852299 .1769867 .01499939 .17799378 .015991211 .1789856 .015991211 .17999268 .015991211 .18099976 .01499939 .18099976 .0009918213 .18099976-.07316589 .1459961-.13328552 .11299133-.16635132 .101989749-.17736817 .101989749-.17936707 .101989749-.18237305 .101989749-.18936157 .10699463-.19335938 .11199951-.19335938 .12298584-.19335938 .20298767-.116256717 .20298767 .0009918213Z"/>
<path id="font_0_4" d="M.37298585 .37835694C.35499574 .41537477 .32598878 .4423828 .2809906 .4423828 .1639862 .4423828 .039993287 .29533387 .039993287 .14929199 .039993287 .055267335 .09498596-.0107421879 .17298889-.0107421879 .19299317-.0107421879 .24299622-.0067443849 .30299378 .06427002 .31098939 .022247315 .34599305-.0107421879 .3939972-.0107421879 .42900086-.0107421879 .45199586 .012252808 .46798707 .044265748 .4850006 .08027649 .49798585 .14129639 .49798585 .14329529 .49798585 .1532898 .4889984 .1532898 .48599244 .1532898 .47599793 .1532898 .47499085 .14929199 .47200013 .13528443 .45498658 .07026672 .43699647 .011245728 .3959961 .011245728 .36898805 .011245728 .3659973 .037261964 .3659973 .057266237 .3659973 .07926941 .36799623 .08728027 .3789978 .13128662 .3899994 .17329407 .3919983 .18330384 .40098573 .22131348L.43699647 .36135865C.44400025 .38935853 .44400025 .39135743 .44400025 .39537049 .44400025 .41236878 .43199159 .42237855 .4149933 .42237855 .3909912 .42237855 .37599183 .4003601 .37298585 .37835694M.30799867 .119277957C.30299378 .10127258 .30299378 .09927368 .28799439 .08227539 .24398804 .027252198 .20298767 .011245728 .1749878 .011245728 .125 .011245728 .11099243 .06626892 .11099243 .105285648 .11099243 .1552887 .14299011 .27833558 .1659851 .32434083 .19699097 .38336183 .24198914 .42037965 .28199769 .42037965 .34700013 .42037965 .36099244 .3383484 .36099244 .33235169 .36099244 .32633973 .35899354 .32034303 .35798646 .31533814L.30799867 .119277957Z"/>
<path id="font_2_2" d="M.2889862 .25C.2889862 .32798768 .27799989 .44898988 .22299195 .56199648 .16299439 .68499758 .07699585 .75 .066986087 .75 .06098938 .75 .056991579 .74598696 .056991579 .73999026 .056991579 .7369995 .056991579 .73498538 .07598877 .71699526 .17399597 .6179962 .23098755 .45899964 .23098755 .25 .23098755 .07899475 .19400025-.09700012 .069992069-.2230072 .056991579-.23500061 .056991579-.23701477 .056991579-.2400055 .056991579-.2460022 .06098938-.25 .066986087-.25 .07699585-.25 .16699219-.18200684 .22599793-.055007936 .2769928 .054992677 .2889862 .16600037 .2889862 .25Z"/>
<path id="font_2_3" d="M.40899659 .23046875H.6879883C.70199587 .23046875 .72099307 .23046875 .72099307 .25045777 .72099307 .27046205 .70199587 .27046205 .6879883 .27046205H.40899659V.5500183C.40899659 .56399539 .40899659 .5830078 .3889923 .5830078 .36898805 .5830078 .36898805 .56399539 .36898805 .5500183V.27046205H.08898926C.07499695 .27046205 .055999757 .27046205 .055999757 .25045777 .055999757 .23046875 .07499695 .23046875 .08898926 .23046875H.36898805V-.05000305C.36898805-.06401062 .36898805-.08300781 .3889923-.08300781 .40899659-.08300781 .40899659-.06401062 .40899659-.05000305V.23046875Z"/>
<path id="font_0_1" d="M.2639923 .4370575C.13899231 .40707398 .041992189 .27713014 .041992189 .15620423 .041992189 .0602417 .10598755-.01171875 .19999695-.01171875 .31698609-.01171875 .3999939 .14520264 .3999939 .28312684 .3999939 .37408448 .3600006 .424057 .32598878 .46903993 .2899933 .51400759 .23098755 .588974 .23098755 .6329498 .23098755 .65493777 .25099183 .67892459 .28599549 .67892459 .31599427 .67892459 .33599855 .66593936 .35699464 .651947 .3769989 .6399536 .39698792 .6269531 .4119873 .6269531 .43699647 .6269531 .45199586 .65093997 .45199586 .66693118 .45199586 .6889343 .43598939 .69192507 .3999939 .6999359 .34799195 .7109375 .33399964 .7109375 .31799317 .7109375 .23999024 .7109375 .20399475 .66793826 .20399475 .60795596 .20399475 .5539856 .23298645 .49801637 .2639923 .4370575M.27598573 .41506959C.30099488 .3690796 .33099366 .31510926 .33099366 .2431488 .33099366 .17718506 .29299928 .010269165 .19999695 .010269165 .14498902 .010269165 .10398865 .052246095 .10398865 .1282196 .10398865 .19117737 .14099121 .37908937 .27598573 .41506959Z"/>
<path id="font_4_1" d="M.6589966 .23046875C.6759949 .23046875 .69400027 .23046875 .69400027 .25045777 .69400027 .27046205 .6759949 .27046205 .6589966 .27046205H.117996219C.100997928 .27046205 .08299255 .27046205 .08299255 .25045777 .08299255 .23046875 .100997928 .23046875 .117996219 .23046875H.6589966Z"/>
<path id="font_0_2" d="M.2649994 .37265016H.37799073C.34498597 .22489929 .33599855 .18196106 .33599855 .11508179 .33599855 .100097659 .33599855 .073150638 .34399415 .03919983 .35398866-.0047454836 .36499024-.0107421879 .37998963-.0107421879 .3999939-.0107421879 .42099 .007247925 .42099 .02722168 .42099 .033218385 .42099 .035202028 .4149933 .049179079 .38598634 .12106323 .38598634 .18595886 .38598634 .21391297 .38598634 .26683045 .3929901 .32073976 .4039917 .37265016H.5179901C.5309906 .37265016 .5669861 .37265016 .5669861 .406662 .5669861 .43066407 .54599 .43066407 .5269928 .43066407H.19198609C.16999817 .43066407 .13198853 .43066407 .08799744 .38365174 .052993776 .34469605 .026992798 .29878236 .026992798 .29379273 .026992798 .29278565 .026992798 .28379823 .038986207 .28379823 .04699707 .28379823 .04899597 .28779603 .054992677 .29577638 .10398865 .37265016 .1619873 .37265016 .18199158 .37265016H.23899842C.20698548 .25186158 .15299988 .13105774 .11099243 .04020691 .102996829 .025222779 .102996829 .023223877 .102996829 .016235352 .102996829-.002746582 .11898804-.0107421879 .13198853-.0107421879 .1619873-.0107421879 .16999817 .017242432 .18199158 .05418396 .19599915 .100097659 .19599915 .10209656 .20899964 .15202332L.2649994 .37265016Z"/>
<path id="font_1_1" d="M.5109863 .48709107C.5109863 .59210208 .47099305 .70410159 .37298585 .70410159 .22299195 .70410159 .06298828 .4360962 .06298828 .20713806 .06298828 .0881958 .10899353-.009765625 .20098877-.009765625 .35299684-.009765625 .5109863 .26312257 .5109863 .48709107M.17599488 .36509706C.22698975 .58110049 .31298829 .6760864 .37199403 .6760864 .43598939 .6760864 .43598939 .565094 .43598939 .5460968 .43598939 .50709536 .42799378 .44909669 .40699769 .36509706H.17599488M.397995 .32910157C.36999513 .22013855 .34700013 .16616822 .31698609 .1171875 .28599549 .065200809 .24598694 .018234253 .20199585 .018234253 .14698792 .018234253 .13798523 .094192508 .13798523 .1481781 .13798523 .21414185 .15699768 .29211427 .16699219 .32910157H.397995Z"/>
</defs>
<use data-text="s" xlink:href="#font_0_6" transform="matrix(9.9626,0,0,-9.9626,3.3199998,45.155004)"/>
<use data-text="t" xlink:href="#font_1_2" transform="matrix(6.9738,0,0,-6.9738,7.99,46.65)"/>
<path transform="matrix(1,0,0,-1,7.409,51.422)" d="M2.81807 0C2.81807 1.55638 1.55638 2.81807 0 2.81807-1.55638 2.81807-2.81807 1.55638-2.81807 0-2.81807-1.55638-1.55638-2.81807 0-2.81807 1.55638-2.81807 2.81807-1.55638 2.81807 0ZM0 0"/>
<use data-text="&#x02dc;" xlink:href="#font_2_4" transform="matrix(9.9626,0,0,-9.9626,140.407,40.073)" fill="#ff3333"/>
<use data-text="s" xlink:href="#font_0_6" transform="matrix(9.9626,0,0,-9.9626,140.009,40.073)" fill="#ff3333"/>
<use data-text="t" xlink:href="#font_1_2" transform="matrix(6.9738,0,0,-6.9738,144.679,41.568)" fill="#ff3333"/>
<use data-text="+" xlink:href="#font_3_1" transform="matrix(6.9738,0,0,-6.9738,147.689,41.568)" fill="#ff3333"/>
<use data-text="1" xlink:href="#font_3_2" transform="matrix(6.9738,0,0,-6.9738,153.80503,41.568)" fill="#ff3333"/>
<path transform="matrix(1,0,0,-1,7.409,51.422)" d="M144.55213 4.25183C144.55213 5.80823 143.29044 7.06992 141.73404 7.06992 140.17765 7.06992 138.91596 5.80823 138.91596 4.25183 138.91596 2.69543 140.17765 1.43375 141.73404 1.43375 143.29044 1.43375 144.55213 2.69543 144.55213 4.25183ZM141.73404 4.25183" fill="#ff3333"/>
<path transform="matrix(1,0,0,-1,7.409,51.422)" stroke-width="1.19553" stroke-linecap="butt" stroke-miterlimit="10" stroke-linejoin="miter" fill="none" stroke="#000000" d="M130.39548 17.00824C131.14266 18.50267 132.88617 19.49893 135.37686 19.49893H136.75264C139.24333 19.49893 140.98685 20.4952 141.73403 21.98962 142.4812 20.4952 144.22472 19.49893 146.71541 19.49893H148.0912C150.5819 19.49893 152.32541 18.50267 153.07259 17.00824"/>
<use data-text="f" xlink:href="#font_0_5" transform="matrix(9.9626,0,0,-9.9626,163.26999,72.506)" fill="#4d4dff"/>
<use data-text="(" xlink:href="#font_2_1" transform="matrix(9.9626,0,0,-9.9626,167.55899,72.506)" fill="#4d4dff"/>
<use data-text="s" xlink:href="#font_0_6" transform="matrix(9.9626,0,0,-9.9626,169.773,72.506)" fill="#4d4dff"/>
<use data-text="t" xlink:href="#font_1_2" transform="matrix(6.9738,0,0,-6.9738,174.443,73.99999)" fill="#4d4dff"/>
<use data-text="," xlink:href="#font_0_3" transform="matrix(9.9626,0,0,-9.9626,177.95099,72.506)" fill="#4d4dff"/>
<use data-text="&#x02dc;" xlink:href="#font_2_4" transform="matrix(9.9626,0,0,-9.9626,180.861,72.506)" fill="#4d4dff"/>
<use data-text="a" xlink:href="#font_0_4" transform="matrix(9.9626,0,0,-9.9626,180.71799,72.506)" fill="#4d4dff"/>
<use data-text="t" xlink:href="#font_1_2" transform="matrix(6.9738,0,0,-6.9738,185.98499,73.99999)" fill="#4d4dff"/>
<use data-text=")" xlink:href="#font_2_2" transform="matrix(9.9626,0,0,-9.9626,187.83199,72.506)" fill="#4d4dff"/>
<path transform="matrix(1,0,0,-1,7.409,51.422)" d="M172.89894-28.3468C172.89894-26.7904 171.63726-25.52872 170.08086-25.52872 168.52446-25.52872 167.26277-26.7904 167.26277-28.3468 167.26277-29.9032 168.52446-31.16489 170.08086-31.16489 171.63726-31.16489 172.89894-29.9032 172.89894-28.3468ZM170.08086-28.3468" fill="#4d4dff"/>
<path transform="matrix(1,0,0,-1,7.409,51.422)" stroke-width="1.19553" stroke-linecap="butt" stroke-miterlimit="10" stroke-linejoin="miter" fill="none" stroke="#000000" d="M157.32488-12.75595C158.07205-11.26152 159.81557-10.26526 162.30626-10.26526H165.09946C167.59015-10.26526 169.33367-9.269 170.08084-7.77457 170.82802-9.269 172.57154-10.26526 175.06223-10.26526H177.85544C180.34613-10.26526 182.08965-11.26152 182.83683-12.75595"/>
<path transform="matrix(1,0,0,-1,7.409,51.422)" stroke-width="1.19553" stroke-linecap="butt" stroke-dasharray="2.98883,2.98883" stroke-miterlimit="10" stroke-linejoin="miter" fill="none" stroke="#4d4dff" d="M3.5198-.94246C65.90572-17.65947 101.97447-28.3468 165.60462-28.3468"/>
<path transform="matrix(1,0,0,-1,173.01361,79.7688)" stroke-width=".9564" stroke-linecap="round" stroke-linejoin="round" fill="none" stroke="#4d4dff" d="M-1.91284 2.55046C-1.75343 1.59402 0 .15938 .4782 0 0-.15938-1.75343-1.59402-1.91284-2.55046"/>
<use data-text="&#x02dc;" xlink:href="#font_2_4" transform="matrix(9.9626,0,0,-9.9626,88.204,69.592)" fill="#4d4dff"/>
<use data-text="a" xlink:href="#font_0_4" transform="matrix(9.9626,0,0,-9.9626,88.062007,69.592)" fill="#4d4dff"/>
<use data-text="t" xlink:href="#font_1_2" transform="matrix(6.9738,0,0,-6.9738,93.328,71.086)" fill="#4d4dff"/>
<use data-text="f" xlink:href="#font_0_5" transform="matrix(9.9626,0,0,-9.9626,111.19299,63.666)" fill="#00b300"/>
<use data-text="(" xlink:href="#font_2_1" transform="matrix(9.9626,0,0,-9.9626,115.482997,63.666)" fill="#00b300"/>
<use data-text="s" xlink:href="#font_0_6" transform="matrix(9.9626,0,0,-9.9626,117.69699,63.666)" fill="#00b300"/>
<use data-text="t" xlink:href="#font_1_2" transform="matrix(6.9738,0,0,-6.9738,122.36699,65.16)" fill="#00b300"/>
<use data-text="," xlink:href="#font_0_3" transform="matrix(9.9626,0,0,-9.9626,125.87499,63.666)" fill="#00b300"/>
<use data-text="&#x02dc;" xlink:href="#font_2_4" transform="matrix(9.9626,0,0,-9.9626,128.784,63.666)" fill="#00b300"/>
<use data-text="a" xlink:href="#font_0_4" transform="matrix(9.9626,0,0,-9.9626,128.642,63.666)" fill="#00b300"/>
<use data-text="t" xlink:href="#font_1_2" transform="matrix(6.9738,0,0,-6.9738,133.90799,65.16)" fill="#00b300"/>
<use data-text="+" xlink:href="#font_2_3" transform="matrix(9.9626,0,0,-9.9626,136.30899,63.666)" fill="#00b300"/>
<use data-text="&#x03b4;" xlink:href="#font_0_1" transform="matrix(9.9626,0,0,-9.9626,142.95099,63.666)" fill="#00b300"/>
<use data-text="a" xlink:href="#font_0_4" transform="matrix(9.9626,0,0,-9.9626,147.75299,63.666)" fill="#00b300"/>
<use data-text="t" xlink:href="#font_1_2" transform="matrix(6.9738,0,0,-6.9738,153.022,65.16)" fill="#00b300"/>
<use data-text=")" xlink:href="#font_2_2" transform="matrix(9.9626,0,0,-9.9626,154.86899,63.666)" fill="#00b300"/>
<path transform="matrix(1,0,0,-1,7.409,51.422)" d="M130.37871 0C130.37871 1.55638 129.11702 2.81807 127.56062 2.81807 126.00424 2.81807 124.74255 1.55638 124.74255 0 124.74255-1.55638 126.00424-2.81807 127.56062-2.81807 129.11702-2.81807 130.37871-1.55638 130.37871 0ZM127.56062 0" fill="#00b300"/>
<path transform="matrix(1,0,0,-1,7.409,51.422)" stroke-width="1.19553" stroke-linecap="butt" stroke-dasharray="2.98883,2.98883" stroke-miterlimit="10" stroke-linejoin="miter" fill="none" stroke="#00b300" d="M3.5198 .94257C48.91806 13.10764 78.64256 13.10764 123.117 1.1901"/>
<path transform="matrix(.96591,.25882,.25882,-.96591,130.526,50.23189)" stroke-width=".9564" stroke-linecap="round" stroke-linejoin="round" fill="none" stroke="#00b300" d="M-1.91284 2.55046C-1.75343 1.59402 0 .15938 .4782 0 0-.15938-1.75343-1.59402-1.91284-2.55046"/>
<use data-text="&#x02dc;" xlink:href="#font_2_4" transform="matrix(9.9626,0,0,-9.9626,54.067,38.543004)" fill="#00b300"/>
<use data-text="a" xlink:href="#font_0_4" transform="matrix(9.9626,0,0,-9.9626,53.924,38.543004)" fill="#00b300"/>
<use data-text="t" xlink:href="#font_1_2" transform="matrix(6.9738,0,0,-6.9738,59.19,40.038003)" fill="#00b300"/>
<use data-text="+" xlink:href="#font_2_3" transform="matrix(9.9626,0,0,-9.9626,64.912,38.543004)" fill="#00b300"/>
<use data-text="&#x03b4;" xlink:href="#font_0_1" transform="matrix(9.9626,0,0,-9.9626,74.875,38.543004)" fill="#00b300"/>
<use data-text="a" xlink:href="#font_0_4" transform="matrix(9.9626,0,0,-9.9626,79.67697,38.543004)" fill="#00b300"/>
<use data-text="t" xlink:href="#font_1_2" transform="matrix(6.9738,0,0,-6.9738,84.946,40.038003)" fill="#00b300"/>
<path transform="matrix(1,0,0,-1,7.409,51.422)" stroke-width=".79701" stroke-linecap="butt" stroke-miterlimit="10" stroke-linejoin="miter" fill="none" stroke="#000000" d="M153.07259 39.68535C153.07259 45.94753 147.99622 51.0239 141.73404 51.0239 135.47187 51.0239 130.3955 45.94753 130.3955 39.68535 130.3955 33.42317 135.47187 28.3468 141.73404 28.3468 147.99622 28.3468 153.07259 33.42317 153.07259 39.68535ZM141.73404 39.68535"/>
<use data-text="&#x2212;" xlink:href="#font_4_1" transform="matrix(9.9626,0,0,-9.9626,151.50299,14.228004)"/>
<use data-text="+" xlink:href="#font_2_3" transform="matrix(9.9626,0,0,-9.9626,145.267,20.464005)"/>
<path transform="matrix(1,0,0,-1,7.409,51.422)" stroke-width=".79701" stroke-linecap="butt" stroke-miterlimit="10" stroke-linejoin="miter" fill="none" stroke="#000000" d="M133.79697 31.74828 149.6711 47.62242"/>
<path transform="matrix(1,0,0,-1,7.409,51.422)" stroke-width=".79701" stroke-linecap="butt" stroke-miterlimit="10" stroke-linejoin="miter" fill="none" stroke="#000000" d="M133.79697 47.62242 149.6711 31.74828"/>
<path transform="matrix(1,0,0,-1,7.409,51.422)" stroke-width=".79701" stroke-linecap="butt" stroke-miterlimit="10" stroke-linejoin="miter" fill="none" stroke="#000000" d="M103.64252 45.89787H94.78513C92.58418 45.89787 90.80002 44.11371 90.80002 41.91277V37.45795C90.80002 35.257 92.58418 33.47284 94.78513 33.47284H103.64252C105.84346 33.47284 107.62762 35.257 107.62762 37.45795V41.91277C107.62762 44.11371 105.84346 45.89787 103.64252 45.89787ZM90.80002 33.47284"/>
<use data-text="&#x03c0;" xlink:href="#font_0_2" transform="matrix(9.9626,0,0,-9.9626,101.529,13.134003)"/>
<use data-text="&#x03b8;" xlink:href="#font_1_1" transform="matrix(6.9738,0,0,-6.9738,107.208,14.629005)"/>
<path transform="matrix(1,0,0,-1,7.409,51.422)" stroke-width="1.19553" stroke-linecap="butt" stroke-miterlimit="10" stroke-linejoin="miter" fill="none" stroke="#000000" d="M141.73404 19.84267V27.39038"/>
<path transform="matrix(0,-1,-1,-0,149.14304,24.03162)" stroke-width=".9564" stroke-linecap="round" stroke-linejoin="round" fill="none" stroke="#000000" d="M-1.91284 2.55046C-1.75343 1.59402 0 .15938 .4782 0 0-.15938-1.75343-1.59402-1.91284-2.55046"/>
<path transform="matrix(1,0,0,-1,7.409,51.422)" stroke-width="1.19553" stroke-linecap="butt" stroke-miterlimit="10" stroke-linejoin="miter" fill="none" stroke="#000000" d="M170.08086-8.50412V39.68535H154.029"/>
<path transform="matrix(-1,-0,0,1,161.438,11.736652)" stroke-width=".9564" stroke-linecap="round" stroke-linejoin="round" fill="none" stroke="#000000" d="M-1.91284 2.55046C-1.75343 1.59402 0 .15938 .4782 0 0-.15938-1.75343-1.59402-1.91284-2.55046"/>
<path transform="matrix(1,0,0,-1,7.409,51.422)" stroke-width="1.19553" stroke-linecap="butt" stroke-miterlimit="10" stroke-linejoin="miter" fill="none" stroke="#000000" d="M130.39548 39.68535H108.98254"/>
<path transform="matrix(-1,-0,0,1,116.39153,11.736652)" stroke-width=".9564" stroke-linecap="round" stroke-linejoin="round" fill="none" stroke="#000000" d="M-1.91284 2.55046C-1.75343 1.59402 0 .15938 .4782 0 0-.15938-1.75343-1.59402-1.91284-2.55046"/>
<path transform="matrix(1,0,0,-1,7.409,51.422)" stroke-width="1.19553" stroke-linecap="butt" stroke-miterlimit="10" stroke-linejoin="miter" fill="none" stroke="#000000" d="M90.4015 39.68535H73.13481V20.79909"/>
<path transform="matrix(0,1,1,0,80.54381,30.622912)" stroke-width=".9564" stroke-linecap="round" stroke-linejoin="round" fill="none" stroke="#000000" d="M-1.91284 2.55046C-1.75343 1.59402 0 .15938 .4782 0 0-.15938-1.75343-1.59402-1.91284-2.55046"/>
</svg>
